<?xml version="1.0" encoding="UTF-8" standalone="no"?>
<svg width="24px" height="23px" viewBox="0 0 24 23" version="1.1" xmlns="http://www.w3.org/2000/svg" xmlns:xlink="http://www.w3.org/1999/xlink">
    <!-- Generator: Sketch 41.2 (35397) - http://www.bohemiancoding.com/sketch -->
    <title>Slice 1</title>
    <desc>Created with Sketch.</desc>
    <defs></defs>
    <g id="Page-1" stroke="none" stroke-width="1" fill="none" fill-rule="evenodd">
        <path d="M6.28,3 C9.516,3.001 11.253,6.491 12,8.031 C12.75,6.484 14.469,3.01 17.726,3.01 C19.784,3.01 22,4.319 22,7.192 C22,10.634 17.256,15.043 12,20.192 C6.742,15.041 2,10.633 2,7.192 C2,4.516 3.965,2.999 6.28,3 Z M6.281,1 C3.098,1 8.8817842e-16,3.187 8.8817842e-16,7.192 C8.8817842e-16,11.853 5.57,16.619 12,23 C18.43,16.619 24,11.853 24,7.192 C24,3.181 20.903,1.01 17.726,1.01 C15.522,1.01 13.28,2.052 12,4.248 C10.715,2.042 8.478,1 6.281,1 L6.281,1 Z" id="Shape" fill="#CA1B1B"></path>
    </g>
</svg>